<svg xmlns="http://www.w3.org/2000/svg" viewBox="0 0 512 512" role="img" aria-label="BioInsight icon">
  <defs>
    <filter id="rough" x="-10%" y="-10%" width="120%" height="120%">
      <feTurbulence type="fractalNoise" baseFrequency="0.025" numOctaves="3" seed="8"/>
      <feDisplacementMap in="SourceGraphic" scale="4"/>
    </filter>
    <linearGradient id="bg" x1="70" y1="50" x2="440" y2="460" gradientUnits="userSpaceOnUse">
      <stop stop-color="#34d399"/>
      <stop offset="0.45" stop-color="#14b8a6"/>
      <stop offset="1" stop-color="#2563eb"/>
    </linearGradient>
    <linearGradient id="coat" x1="180" y1="300" x2="340" y2="455" gradientUnits="userSpaceOnUse">
      <stop stop-color="#ffffff"/>
      <stop offset="1" stop-color="#e0f2fe"/>
    </linearGradient>
  </defs>
  <rect x="38" y="38" width="436" height="436" rx="94" fill="url(#bg)"/>
  <path d="M108 403c42-72 88-104 146-104 60 0 108 33 148 104 13 23 0 51-27 51H135c-27 0-40-28-27-51Z" fill="url(#coat)" stroke="#172554" stroke-width="14" filter="url(#rough)"/>
  <path d="M206 325l50 48 50-48v126H206V325Z" fill="#dbeafe" stroke="#172554" stroke-width="9"/>
  <path d="M165 160c5-55 45-93 106-93 66 0 106 42 109 100 12 7 19 20 16 36-4 18-17 30-34 31-18 48-55 75-105 75-48 0-87-27-104-75-17-1-31-13-34-31-3-17 4-31 20-38 15-11 32-33 26-65Z" fill="#f8c08d" stroke="#172554" stroke-width="14" filter="url(#rough)"/>
  <path d="M137 170c13-73 63-115 133-115 68 0 112 43 125 112-27-33-64-39-112-25-27 8-61 3-89-19-5 25-26 50-57 47Z" fill="#111827" stroke="#172554" stroke-width="12" filter="url(#rough)"/>
  <path d="M199 209c10-11 25-11 36 0M286 209c11-11 26-11 36 0" fill="none" stroke="#172554" stroke-width="11" stroke-linecap="round"/>
  <path d="M238 255c18 13 39 13 57 0" fill="none" stroke="#dc2626" stroke-width="11" stroke-linecap="round"/>
  <path d="M123 338c-16-22-13-52 10-67 23-16 54-8 66 17" fill="none" stroke="#172554" stroke-width="13" stroke-linecap="round"/>
  <path d="M334 324c31-29 62-41 93-33" fill="none" stroke="#172554" stroke-width="13" stroke-linecap="round"/>
  <g transform="translate(334 164) rotate(-10)" filter="url(#rough)">
    <path d="M36 16c-25 17-25 49 0 66s25 49 0 66M93 16c25 17 25 49 0 66s-25 49 0 66" fill="none" stroke="#fff7ed" stroke-width="12" stroke-linecap="round"/>
    <path d="M41 42h50M39 82h54M41 122h50" stroke="#f97316" stroke-width="9" stroke-linecap="round"/>
  </g>
  <g transform="translate(91 280) rotate(8)" filter="url(#rough)">
    <rect x="0" y="0" width="120" height="82" rx="18" fill="#fff7ed" stroke="#172554" stroke-width="10"/>
    <path d="M24 58V35M49 58V25M74 58V42M99 58V20" stroke="#2563eb" stroke-width="10" stroke-linecap="round"/>
  </g>
  <path d="M77 105c28-21 58-33 91-38M419 409c-27 20-57 32-90 36" fill="none" stroke="#fef3c7" stroke-width="11" stroke-linecap="round" opacity="0.75"/>
</svg>
